<svg xmlns="http://www.w3.org/2000/svg" viewBox="0 0 32 32">
	<style type="text/css">
		@media (prefers-color-scheme: dark) {
			.favicon-bg{fill:#313131;}
			.favicon-icon{fill:#FBF7F2;}
		}
	</style>
	<path class="favicon-bg" fill="#F1F0EF" d="M4,0h24c2.2,0,4,1.8,4,4v24c0,2.2-1.8,4-4,4H4c-2.2,0-4-1.8-4-4V4C0,1.8,1.8,0,4,0z"/>
	<path class="favicon-icon" fill="#313131" d="M21.2,16.2c-1.1,0-2,0.9-2,1.9c0,1.1,0.9,2,2,2c1.1,0,2-0.9,2-2C23.2,17,22.3,16.2,21.2,16.2z M21.2,11.5 c-1.1,0-2,0.9-2,1.9s0.9,2,2,2c1.1,0,2-0.9,2-2S22.3,11.5,21.2,11.5z M26,11.5c-1.1,0-2,0.9-2,1.9s0.9,2,2,2c1.1,0,2-0.9,2-2 S27.1,11.5,26,11.5z M16.4,11.5c-1.1,0-2,0.9-2,1.9s0.9,2,2,2c1.1,0,2-0.9,2-2S17.5,11.5,16.4,11.5z M8.9,11.6H5v8.2h13.1v-3.5H8.9 V11.6z M8.9,11.6H5v8.2h13.1v-3.5H8.9V11.6z M8.9,11.6H5v8.2h13.1v-3.5H8.9V11.6z M8.9,11.6H5v8.2h13.1v-3.5H8.9V11.6z"/>
</svg>